<svg width="195" height="107" viewBox="0 0 195 107" fill="none" xmlns="http://www.w3.org/2000/svg">
<path d="M50.942 97.7188H49.4107L48.8912 100.521H47.7428L48.2623 97.7188H46.6832V96.6387H48.4674L48.8639 94.499H47.2027V93.4121H49.0689L49.6021 90.5684H50.7438L50.2105 93.4121H51.7486L52.2818 90.5684H53.4234L52.8902 93.4121H54.3121V94.499H52.6852L52.2887 96.6387H53.7994V97.7188H52.0836L51.5641 100.521H50.4225L50.942 97.7188ZM49.6158 96.6387H51.1471L51.5436 94.499H50.0123L49.6158 96.6387ZM62.0205 98.2314L63.1963 93.125H64.8164L62.7998 100.521H61.4326L59.8467 95.4424L58.2881 100.521H56.9209L54.8975 93.125H56.5176L57.7139 98.1768L59.2314 93.125H60.4824L62.0205 98.2314ZM69.2846 100.658C68.2318 100.658 67.3773 100.328 66.7211 99.667C66.0694 99.0016 65.7436 98.1175 65.7436 97.0146V96.8096C65.7436 96.0713 65.8848 95.4128 66.1674 94.834C66.4545 94.2507 66.8555 93.7972 67.3705 93.4736C67.8855 93.1501 68.4597 92.9883 69.0932 92.9883C70.1003 92.9883 70.8773 93.3096 71.4242 93.9521C71.9757 94.5947 72.2514 95.5039 72.2514 96.6797V97.3496H67.4184C67.4685 97.9603 67.6713 98.4434 68.0268 98.7988C68.3868 99.1543 68.838 99.332 69.3803 99.332C70.1413 99.332 70.7611 99.0244 71.2397 98.4092L72.1352 99.2637C71.8389 99.7057 71.4425 100.05 70.9457 100.296C70.4535 100.537 69.8998 100.658 69.2846 100.658ZM69.0863 94.3213C68.6306 94.3213 68.2615 94.4808 67.9789 94.7998C67.7009 95.1188 67.5232 95.5632 67.4457 96.1328H70.6107V96.0098C70.5743 95.4538 70.4262 95.0345 70.1664 94.752C69.9066 94.4648 69.5466 94.3213 69.0863 94.3213ZM79.3787 98.2041H75.5232L74.7166 100.521H72.9187L76.6785 90.5684H78.2303L81.9969 100.521H80.1922L79.3787 98.2041ZM76.0086 96.8096H78.8934L77.451 92.6807L76.0086 96.8096ZM86.9436 94.6426C86.7248 94.6061 86.4992 94.5879 86.2668 94.5879C85.5057 94.5879 84.993 94.8796 84.7287 95.4629V100.521H83.0676V93.125H84.6535L84.6945 93.9521C85.0956 93.3096 85.6516 92.9883 86.3625 92.9883C86.5995 92.9883 86.7954 93.0202 86.9504 93.084L86.9436 94.6426ZM91.2135 100.658C90.1607 100.658 89.3063 100.328 88.65 99.667C87.9983 99.0016 87.6725 98.1175 87.6725 97.0146V96.8096C87.6725 96.0713 87.8137 95.4128 88.0963 94.834C88.3834 94.2507 88.7844 93.7972 89.2994 93.4736C89.8144 93.1501 90.3886 92.9883 91.0221 92.9883C92.0292 92.9883 92.8063 93.3096 93.3531 93.9521C93.9046 94.5947 94.1803 95.5039 94.1803 96.6797V97.3496H89.3473C89.3974 97.9603 89.6002 98.4434 89.9557 98.7988C90.3157 99.1543 90.7669 99.332 91.3092 99.332C92.0702 99.332 92.69 99.0244 93.1686 98.4092L94.0641 99.2637C93.7678 99.7057 93.3714 100.05 92.8746 100.296C92.3824 100.537 91.8287 100.658 91.2135 100.658ZM91.0152 94.3213C90.5595 94.3213 90.1904 94.4808 89.9078 94.7998C89.6298 95.1188 89.4521 95.5632 89.3746 96.1328H92.5396V96.0098C92.5032 95.4538 92.3551 95.0345 92.0953 94.752C91.8355 94.4648 91.4755 94.3213 91.0152 94.3213ZM103.365 99.2295C103.005 99.6989 102.506 100.054 101.868 100.296C101.23 100.537 100.506 100.658 99.6943 100.658C98.8604 100.658 98.1221 100.469 97.4795 100.091C96.8369 99.7126 96.3402 99.1725 95.9893 98.4707C95.6429 97.7643 95.4629 96.9417 95.4492 96.0029V95.2236C95.4492 93.7197 95.8092 92.5462 96.5293 91.7031C97.2493 90.8555 98.2542 90.4316 99.5439 90.4316C100.651 90.4316 101.531 90.7051 102.183 91.252C102.834 91.7988 103.226 92.5872 103.358 93.6172H101.663C101.472 92.4186 100.777 91.8193 99.5781 91.8193C98.8034 91.8193 98.2132 92.0996 97.8076 92.6602C97.4066 93.2161 97.1992 94.0342 97.1855 95.1143V95.8799C97.1855 96.9554 97.4111 97.7917 97.8623 98.3887C98.318 98.9811 98.9492 99.2773 99.7559 99.2773C100.64 99.2773 101.269 99.0768 101.643 98.6758V96.7275H99.5918V95.415H103.365V99.2295ZM108.462 100.658C107.41 100.658 106.555 100.328 105.899 99.667C105.247 99.0016 104.921 98.1175 104.921 97.0146V96.8096C104.921 96.0713 105.063 95.4128 105.345 94.834C105.632 94.2507 106.033 93.7972 106.548 93.4736C107.063 93.1501 107.637 92.9883 108.271 92.9883C109.278 92.9883 110.055 93.3096 110.602 93.9521C111.153 94.5947 111.429 95.5039 111.429 96.6797V97.3496H106.596C106.646 97.9603 106.849 98.4434 107.204 98.7988C107.565 99.1543 108.016 99.332 108.558 99.332C109.319 99.332 109.939 99.0244 110.417 98.4092L111.313 99.2637C111.017 99.7057 110.62 100.05 110.123 100.296C109.631 100.537 109.078 100.658 108.462 100.658ZM108.264 94.3213C107.808 94.3213 107.439 94.4808 107.157 94.7998C106.879 95.1188 106.701 95.5632 106.623 96.1328H109.788V96.0098C109.752 95.4538 109.604 95.0345 109.344 94.752C109.084 94.4648 108.724 94.3213 108.264 94.3213ZM114.366 93.125L114.414 93.9795C114.961 93.3187 115.679 92.9883 116.567 92.9883C118.108 92.9883 118.891 93.8701 118.919 95.6338V100.521H117.258V95.7295C117.258 95.2601 117.155 94.9137 116.95 94.6904C116.749 94.4626 116.419 94.3486 115.959 94.3486C115.289 94.3486 114.79 94.6517 114.462 95.2578V100.521H112.801V93.125H114.366ZM123.975 100.658C122.922 100.658 122.068 100.328 121.411 99.667C120.76 99.0016 120.434 98.1175 120.434 97.0146V96.8096C120.434 96.0713 120.575 95.4128 120.858 94.834C121.145 94.2507 121.546 93.7972 122.061 93.4736C122.576 93.1501 123.15 92.9883 123.783 92.9883C124.791 92.9883 125.568 93.3096 126.114 93.9521C126.666 94.5947 126.942 95.5039 126.942 96.6797V97.3496H122.109C122.159 97.9603 122.362 98.4434 122.717 98.7988C123.077 99.1543 123.528 99.332 124.071 99.332C124.832 99.332 125.451 99.0244 125.93 98.4092L126.825 99.2637C126.529 99.7057 126.133 100.05 125.636 100.296C125.144 100.537 124.59 100.658 123.975 100.658ZM123.777 94.3213C123.321 94.3213 122.952 94.4808 122.669 94.7998C122.391 95.1188 122.213 95.5632 122.136 96.1328H125.301V96.0098C125.265 95.4538 125.116 95.0345 124.857 94.752C124.597 94.4648 124.237 94.3213 123.777 94.3213ZM132.483 98.5117C132.483 98.2155 132.36 97.9899 132.114 97.835C131.872 97.68 131.469 97.5433 130.904 97.4248C130.339 97.3063 129.867 97.1559 129.489 96.9736C128.659 96.5726 128.245 95.9915 128.245 95.2305C128.245 94.5924 128.514 94.0592 129.051 93.6309C129.589 93.2025 130.273 92.9883 131.102 92.9883C131.986 92.9883 132.699 93.207 133.242 93.6445C133.789 94.082 134.062 94.6494 134.062 95.3467H132.401C132.401 95.0277 132.282 94.7633 132.046 94.5537C131.809 94.3395 131.494 94.2324 131.102 94.2324C130.738 94.2324 130.439 94.3167 130.207 94.4854C129.979 94.654 129.865 94.8796 129.865 95.1621C129.865 95.4173 129.972 95.6156 130.186 95.7568C130.4 95.8981 130.833 96.0417 131.485 96.1875C132.137 96.3288 132.647 96.4997 133.016 96.7002C133.39 96.8962 133.666 97.1331 133.843 97.4111C134.026 97.6891 134.117 98.0264 134.117 98.4229C134.117 99.0882 133.841 99.6283 133.29 100.043C132.738 100.453 132.016 100.658 131.123 100.658C130.517 100.658 129.976 100.549 129.503 100.33C129.029 100.111 128.659 99.8105 128.395 99.4277C128.131 99.0449 127.999 98.6325 127.999 98.1904H129.612C129.635 98.5824 129.783 98.8854 130.056 99.0996C130.33 99.3092 130.692 99.4141 131.143 99.4141C131.581 99.4141 131.913 99.332 132.141 99.168C132.369 98.9993 132.483 98.7806 132.483 98.5117ZM138.257 98.1426L139.761 93.125H141.531L138.592 101.643C138.141 102.887 137.375 103.509 136.295 103.509C136.053 103.509 135.787 103.468 135.495 103.386V102.101L135.81 102.121C136.229 102.121 136.543 102.044 136.753 101.889C136.967 101.738 137.136 101.483 137.259 101.123L137.498 100.487L134.9 93.125H136.691L138.257 98.1426ZM146.738 98.5117C146.738 98.2155 146.615 97.9899 146.369 97.835C146.127 97.68 145.724 97.5433 145.159 97.4248C144.593 97.3063 144.122 97.1559 143.744 96.9736C142.914 96.5726 142.499 95.9915 142.499 95.2305C142.499 94.5924 142.768 94.0592 143.306 93.6309C143.844 93.2025 144.527 92.9883 145.357 92.9883C146.241 92.9883 146.954 93.207 147.496 93.6445C148.043 94.082 148.317 94.6494 148.317 95.3467H146.656C146.656 95.0277 146.537 94.7633 146.3 94.5537C146.063 94.3395 145.749 94.2324 145.357 94.2324C144.992 94.2324 144.694 94.3167 144.461 94.4854C144.233 94.654 144.12 94.8796 144.12 95.1621C144.12 95.4173 144.227 95.6156 144.441 95.7568C144.655 95.8981 145.088 96.0417 145.74 96.1875C146.391 96.3288 146.902 96.4997 147.271 96.7002C147.645 96.8962 147.92 97.1331 148.098 97.4111C148.28 97.6891 148.371 98.0264 148.371 98.4229C148.371 99.0882 148.096 99.6283 147.544 100.043C146.993 100.453 146.271 100.658 145.377 100.658C144.771 100.658 144.231 100.549 143.757 100.33C143.283 100.111 142.914 99.8105 142.65 99.4277C142.385 99.0449 142.253 98.6325 142.253 98.1904H143.867C143.889 98.5824 144.038 98.8854 144.311 99.0996C144.584 99.3092 144.947 99.4141 145.398 99.4141C145.835 99.4141 146.168 99.332 146.396 99.168C146.624 98.9993 146.738 98.7806 146.738 98.5117Z" fill="#EEEEEE"/>
<g filter="url(#filter0_ddd)">
<rect x="68.5317" y="9" width="56" height="56" rx="28" fill="#121212"/>
<rect x="68.5317" y="9" width="56" height="56" rx="28" fill="white" fill-opacity="0.09"/>
</g>
<mask id="mask0" mask-type="alpha" maskUnits="userSpaceOnUse" x="68" y="9" width="57" height="56">
<rect x="68.5317" y="9" width="56" height="56" rx="28" fill="white"/>
<rect x="68.5317" y="9" width="56" height="56" rx="28" stroke="white"/>
</mask>
<g mask="url(#mask0)">
<rect x="68.5317" y="9" width="56" height="56" fill="#03CEA4"/>
</g>
<mask id="mask1" mask-type="alpha" maskUnits="userSpaceOnUse" x="68" y="4" width="57" height="66">
<rect x="68.5317" y="4" width="56" height="65.7391" rx="28" fill="white"/>
</mask>
<g mask="url(#mask1)">
<path d="M91.5317 30V44L102.532 37L91.5317 30Z" fill="#EEEEEE"/>
<mask id="mask2" mask-type="alpha" maskUnits="userSpaceOnUse" x="91" y="32" width="12" height="14">
<path d="M91.5317 32V46L102.532 39L91.5317 32Z" fill="#EEEEEE"/>
</mask>
<g mask="url(#mask2)">
</g>
</g>
<defs>
<filter id="filter0_ddd" x="58.5317" y="0" width="76" height="76" filterUnits="userSpaceOnUse" color-interpolation-filters="sRGB">
<feFlood flood-opacity="0" result="BackgroundImageFix"/>
<feColorMatrix in="SourceAlpha" type="matrix" values="0 0 0 0 0 0 0 0 0 0 0 0 0 0 0 0 0 0 127 0"/>
<feOffset dy="2"/>
<feGaussianBlur stdDeviation="2"/>
<feColorMatrix type="matrix" values="0 0 0 0 0 0 0 0 0 0 0 0 0 0 0 0 0 0 0.2 0"/>
<feBlend mode="normal" in2="BackgroundImageFix" result="effect1_dropShadow"/>
<feColorMatrix in="SourceAlpha" type="matrix" values="0 0 0 0 0 0 0 0 0 0 0 0 0 0 0 0 0 0 127 0"/>
<feOffset dy="1"/>
<feGaussianBlur stdDeviation="5"/>
<feColorMatrix type="matrix" values="0 0 0 0 0 0 0 0 0 0 0 0 0 0 0 0 0 0 0.12 0"/>
<feBlend mode="normal" in2="effect1_dropShadow" result="effect2_dropShadow"/>
<feColorMatrix in="SourceAlpha" type="matrix" values="0 0 0 0 0 0 0 0 0 0 0 0 0 0 0 0 0 0 127 0"/>
<feOffset dy="4"/>
<feGaussianBlur stdDeviation="2.5"/>
<feColorMatrix type="matrix" values="0 0 0 0 0 0 0 0 0 0 0 0 0 0 0 0 0 0 0.14 0"/>
<feBlend mode="normal" in2="effect2_dropShadow" result="effect3_dropShadow"/>
<feBlend mode="normal" in="SourceGraphic" in2="effect3_dropShadow" result="shape"/>
</filter>
</defs>
</svg>
