<svg width="22" height="20" viewBox="0 0 22 20" fill="none" xmlns="http://www.w3.org/2000/svg">
<path d="M18.7889 0.379473C15.7382 0.268557 13.6776 2.01756 12.5904 5.59897C13.1496 5.34872 13.6932 5.23689 14.2193 5.23689C15.3368 5.23689 15.8308 5.87581 15.6988 7.14539C15.6328 7.91447 15.1415 9.03281 14.2212 10.5041C13.2963 11.9753 12.6051 12.7123 12.1449 12.7123C10.7498 12.7123 9.911 6.03531 9.62683 4.21206C9.23175 1.67747 8.1785 0.492223 6.46708 0.65814C4.89592 0.807557 2.15417 3.63639 0 5.55406L1.03492 6.90339C2.02033 6.20489 2.59508 5.85472 2.75917 5.85472C4.47425 5.85472 5.30475 11.6911 6.63667 16.0316C7.53042 18.4268 8.602 19.6249 9.89358 19.6249C11.9689 19.6249 14.4971 17.6596 17.4928 13.7271C20.3848 9.96231 21.8827 6.99506 21.9789 4.83081L21.9908 4.82164C22.1137 1.92039 21.0549 0.43539 18.7889 0.379473Z" fill="#273043"/>
</svg>
