<svg width="22" height="22" viewBox="0 0 22 22" fill="none" xmlns="http://www.w3.org/2000/svg">
<g clip-path="url(#clip0)">
<path d="M19.9644 11.1382C19.7371 10.1505 18.9292 9.42192 17.9568 9.31347C15.6545 9.05629 13.3232 9.05508 11.0033 9.05629C8.68239 9.05508 6.35154 9.05629 4.0486 9.31347C3.07667 9.42216 2.26923 10.1507 2.04214 11.1382C1.71848 12.5447 1.7146 14.08 1.7146 15.5282C1.7146 16.9764 1.7146 18.5114 2.03825 19.9179C2.26535 20.9053 3.07278 21.6339 4.0452 21.7426C6.34766 22 8.6785 22.001 10.9992 22C13.3201 22.0012 15.6504 22 17.9536 21.7426C18.9255 21.6339 19.7335 20.9053 19.9605 19.9179C20.284 18.5114 20.2857 16.9764 20.2857 15.5282C20.2854 14.0797 20.2878 12.5447 19.9644 11.1382ZM7.01171 12.2283H5.6676V19.3705H4.41908V12.2283H3.09947V11.0584H7.01171V12.2283ZM10.4028 19.3708H9.27972V18.6951C8.83354 19.2065 8.40992 19.4559 7.99723 19.4559C7.63548 19.4559 7.38656 19.3094 7.27422 18.9957C7.21308 18.8084 7.17523 18.5119 7.17523 18.0747V13.1772H8.29735V17.7372C8.29735 18.0002 8.29735 18.1368 8.30754 18.1737C8.33447 18.3479 8.41963 18.4362 8.57005 18.4362C8.7952 18.4362 9.03055 18.2627 9.27947 17.9107V13.1772H10.4026L10.4028 19.3708ZM14.6664 17.5118C14.6664 18.0846 14.6278 18.4973 14.5528 18.7599C14.4029 19.2206 14.1027 19.4559 13.6563 19.4559C13.257 19.4559 12.8717 19.2342 12.4964 18.7708V19.371H11.3742V11.0584H12.4964V13.7731C12.8588 13.3269 13.2436 13.1012 13.6563 13.1012C14.1027 13.1012 14.4031 13.3363 14.5528 13.8C14.6283 14.0492 14.6664 14.4587 14.6664 15.0451V17.5118ZM18.9018 16.4785H16.6573V17.5764C16.6573 18.1497 16.8448 18.436 17.2306 18.436C17.5069 18.436 17.6678 18.2858 17.7318 17.9859C17.7423 17.925 17.7571 17.6756 17.7571 17.2255H18.902V17.3893C18.902 17.751 18.8882 18.0002 18.878 18.1123C18.8404 18.3607 18.7521 18.5861 18.616 18.7846C18.3052 19.2344 17.8447 19.4562 17.2585 19.4562C16.6714 19.4562 16.2245 19.2448 15.9001 18.822C15.6621 18.5119 15.5398 18.0237 15.5398 17.3655V15.1963C15.5398 14.5342 15.6482 14.0499 15.8867 13.7369C16.2109 13.313 16.6575 13.102 17.2308 13.102C17.794 13.102 18.2404 13.313 18.5548 13.7369C18.7899 14.0499 18.9022 14.5342 18.9022 15.1963V16.4785H18.9018Z" fill="#273043"/>
<path d="M17.2207 14.1113C16.8456 14.1113 16.6575 14.3979 16.6575 14.9704V15.5435H17.7796V14.9704C17.7794 14.3979 17.5919 14.1113 17.2207 14.1113Z" fill="#273043"/>
<path d="M13.0559 14.1113C12.871 14.1113 12.6837 14.1987 12.4962 14.3843V18.1592C12.6835 18.347 12.871 18.4358 13.0559 18.4358C13.3795 18.4358 13.544 18.1592 13.544 17.5999V14.9564C13.544 14.3979 13.3795 14.1113 13.0559 14.1113Z" fill="#273043"/>
<path d="M13.6828 8.48536C14.0964 8.48536 14.5268 8.23401 14.9784 7.71674V8.39947H16.1126V2.14014H14.9784V6.92411C14.727 7.2793 14.4888 7.45496 14.2619 7.45496C14.11 7.45496 14.0207 7.36519 13.996 7.18929C13.9822 7.15217 13.9822 7.01412 13.9822 6.74845V2.14014H12.8516V7.08957C12.8516 7.53163 12.8894 7.83077 12.952 8.02026C13.066 8.33736 13.3176 8.48536 13.6828 8.48536Z" fill="#273043"/>
<path d="M5.78675 4.99747V8.39924H7.04449V4.99747L8.55746 0H7.28565L6.42751 3.29841L5.53467 0H4.21118C4.47636 0.778566 4.75222 1.56101 5.01741 2.34031C5.42088 3.51167 5.67272 4.39481 5.78675 4.99747Z" fill="#273043"/>
<path d="M10.2432 8.48538C10.8114 8.48538 11.2529 8.27163 11.5662 7.84462C11.8042 7.5314 11.9182 7.03791 11.9182 6.37265V4.18082C11.9182 3.51168 11.8044 3.02256 11.5662 2.70642C11.2529 2.2782 10.8116 2.06445 10.2432 2.06445C9.67785 2.06445 9.23653 2.2782 8.92258 2.70642C8.68166 3.02256 8.56763 3.51168 8.56763 4.18082V6.37265C8.56763 7.03791 8.68166 7.5314 8.92258 7.84462C9.23629 8.27163 9.67785 8.48538 10.2432 8.48538ZM9.70187 3.95349C9.70187 3.37436 9.87753 3.08564 10.2432 3.08564C10.6088 3.08564 10.784 3.37411 10.784 3.95349V6.58639C10.784 7.16553 10.6088 7.45521 10.2432 7.45521C9.87753 7.45521 9.70187 7.16553 9.70187 6.58639V3.95349Z" fill="#273043"/>
</g>
<defs>
<clipPath id="clip0">
<rect width="22" height="22" fill="white"/>
</clipPath>
</defs>
</svg>
